# xmcd CD database file
#
# Track frame offsets:
#	150
#	33944
#	53854
#	73689
#	100310
#	130190
#	149127
#	173136
#	204473
#	231450
#	246017
#
# Disc length: 3522 seconds
#
# Revision: 0
# Processed by: cddbd v1.5.2PL0 Copyright (c) Steve Scherf et al.
# Submitted via: CDex 1.70beta2
#
DISCID=a40dc00b
DTITLE=Andy Dickens Band - Alone Together
DYEAR=2002
DGENRE=Jazz
TTITLE0=Alone Together
TTITLE1=The Mooche
TTITLE2=Take Your Shoes Off, Baby
TTITLE3=Edwd
TTITLE4=Boulevard Of Broken Dreams
TTITLE5=Perdido
TTITLE6=A Kiss To Build A Dream On
TTITLE7=My Man's Gone Now
TTITLE8=She's Funny That Way
TTITLE9=Straighten Up And Fly Right
TTITLE10=Bop, Look And Listen
EXTD=YEAR: 2002
EXTT0=
EXTT1=
EXTT2=
EXTT3=
EXTT4=
EXTT5=
EXTT6=
EXTT7=
EXTT8=
EXTT9=
EXTT10=
PLAYORDER=
